<mxfile host="app.diagrams.net" modified="2024-02-02T11:21:08.029Z" agent="Mozilla/5.0 (Windows NT 10.0; Win64; x64; rv:122.0) Gecko/20100101 Firefox/122.0" etag="EvpGiXuqtWkE4FAqL8_g" version="22.1.21" type="github">
  <diagram id="C5RBs43oDa-KdzZeNtuy" name="Page-1">
    <mxGraphModel dx="1434" dy="774" grid="1" gridSize="10" guides="1" tooltips="1" connect="1" arrows="1" fold="1" page="1" pageScale="1" pageWidth="827" pageHeight="1169" math="0" shadow="0">
      <root>
        <mxCell id="WIyWlLk6GJQsqaUBKTNV-0" />
        <mxCell id="WIyWlLk6GJQsqaUBKTNV-1" parent="WIyWlLk6GJQsqaUBKTNV-0" />
        <mxCell id="eFb6EC-VP60E3mpf6WAh-1" value="" style="edgeStyle=orthogonalEdgeStyle;rounded=0;orthogonalLoop=1;jettySize=auto;html=1;" edge="1" parent="WIyWlLk6GJQsqaUBKTNV-1" source="WIyWlLk6GJQsqaUBKTNV-3" target="eFb6EC-VP60E3mpf6WAh-0">
          <mxGeometry relative="1" as="geometry" />
        </mxCell>
        <mxCell id="WIyWlLk6GJQsqaUBKTNV-3" value="User Authentication and Input" style="rounded=1;whiteSpace=wrap;html=1;fontSize=12;glass=0;strokeWidth=1;shadow=0;fillColor=#d5e8d4;strokeColor=#82b366;" parent="WIyWlLk6GJQsqaUBKTNV-1" vertex="1">
          <mxGeometry x="24" y="80" width="120" height="40" as="geometry" />
        </mxCell>
        <mxCell id="eFb6EC-VP60E3mpf6WAh-12" style="edgeStyle=orthogonalEdgeStyle;rounded=0;orthogonalLoop=1;jettySize=auto;html=1;exitX=1;exitY=0.5;exitDx=0;exitDy=0;entryX=0;entryY=0.5;entryDx=0;entryDy=0;" edge="1" parent="WIyWlLk6GJQsqaUBKTNV-1" source="WIyWlLk6GJQsqaUBKTNV-7" target="WIyWlLk6GJQsqaUBKTNV-11">
          <mxGeometry relative="1" as="geometry" />
        </mxCell>
        <mxCell id="WIyWlLk6GJQsqaUBKTNV-7" value="Query Processing" style="rounded=1;whiteSpace=wrap;html=1;fontSize=12;glass=0;strokeWidth=1;shadow=0;fillColor=#d5e8d4;strokeColor=#82b366;" parent="WIyWlLk6GJQsqaUBKTNV-1" vertex="1">
          <mxGeometry x="180" y="160" width="120" height="40" as="geometry" />
        </mxCell>
        <mxCell id="eFb6EC-VP60E3mpf6WAh-13" style="edgeStyle=orthogonalEdgeStyle;rounded=0;orthogonalLoop=1;jettySize=auto;html=1;exitX=1;exitY=0.5;exitDx=0;exitDy=0;entryX=0;entryY=0.5;entryDx=0;entryDy=0;" edge="1" parent="WIyWlLk6GJQsqaUBKTNV-1" source="WIyWlLk6GJQsqaUBKTNV-11" target="eFb6EC-VP60E3mpf6WAh-3">
          <mxGeometry relative="1" as="geometry" />
        </mxCell>
        <mxCell id="WIyWlLk6GJQsqaUBKTNV-11" value="Data Preparation and Management" style="rounded=1;whiteSpace=wrap;html=1;fontSize=12;glass=0;strokeWidth=1;shadow=0;fillColor=#ffe6cc;strokeColor=#d79b00;" parent="WIyWlLk6GJQsqaUBKTNV-1" vertex="1">
          <mxGeometry x="330" y="160" width="120" height="40" as="geometry" />
        </mxCell>
        <mxCell id="eFb6EC-VP60E3mpf6WAh-11" style="edgeStyle=orthogonalEdgeStyle;rounded=0;orthogonalLoop=1;jettySize=auto;html=1;exitX=1;exitY=0.5;exitDx=0;exitDy=0;entryX=0;entryY=0.5;entryDx=0;entryDy=0;" edge="1" parent="WIyWlLk6GJQsqaUBKTNV-1" source="eFb6EC-VP60E3mpf6WAh-0" target="WIyWlLk6GJQsqaUBKTNV-7">
          <mxGeometry relative="1" as="geometry" />
        </mxCell>
        <mxCell id="eFb6EC-VP60E3mpf6WAh-0" value="Input Guardrails" style="whiteSpace=wrap;html=1;rounded=1;glass=0;strokeWidth=1;shadow=0;fillColor=#f8cecc;strokeColor=#b85450;" vertex="1" parent="WIyWlLk6GJQsqaUBKTNV-1">
          <mxGeometry x="24" y="160" width="120" height="40" as="geometry" />
        </mxCell>
        <mxCell id="eFb6EC-VP60E3mpf6WAh-14" style="edgeStyle=orthogonalEdgeStyle;rounded=0;orthogonalLoop=1;jettySize=auto;html=1;exitX=1;exitY=0.5;exitDx=0;exitDy=0;entryX=0;entryY=0.5;entryDx=0;entryDy=0;" edge="1" parent="WIyWlLk6GJQsqaUBKTNV-1" source="eFb6EC-VP60E3mpf6WAh-3" target="eFb6EC-VP60E3mpf6WAh-5">
          <mxGeometry relative="1" as="geometry" />
        </mxCell>
        <mxCell id="eFb6EC-VP60E3mpf6WAh-3" value="Retrieval System" style="rounded=1;whiteSpace=wrap;html=1;fontSize=12;glass=0;strokeWidth=1;shadow=0;fillColor=#e1d5e7;strokeColor=#9673a6;" vertex="1" parent="WIyWlLk6GJQsqaUBKTNV-1">
          <mxGeometry x="480" y="160" width="120" height="40" as="geometry" />
        </mxCell>
        <mxCell id="eFb6EC-VP60E3mpf6WAh-15" style="edgeStyle=orthogonalEdgeStyle;rounded=0;orthogonalLoop=1;jettySize=auto;html=1;exitX=0.5;exitY=0;exitDx=0;exitDy=0;entryX=0.5;entryY=1;entryDx=0;entryDy=0;" edge="1" parent="WIyWlLk6GJQsqaUBKTNV-1" source="eFb6EC-VP60E3mpf6WAh-5" target="eFb6EC-VP60E3mpf6WAh-9">
          <mxGeometry relative="1" as="geometry" />
        </mxCell>
        <mxCell id="eFb6EC-VP60E3mpf6WAh-18" style="edgeStyle=orthogonalEdgeStyle;rounded=0;orthogonalLoop=1;jettySize=auto;html=1;exitX=0;exitY=0;exitDx=0;exitDy=0;entryX=0.75;entryY=1;entryDx=0;entryDy=0;dashed=1;" edge="1" parent="WIyWlLk6GJQsqaUBKTNV-1" source="eFb6EC-VP60E3mpf6WAh-5" target="eFb6EC-VP60E3mpf6WAh-6">
          <mxGeometry relative="1" as="geometry">
            <Array as="points">
              <mxPoint x="630" y="130" />
              <mxPoint x="450" y="130" />
            </Array>
          </mxGeometry>
        </mxCell>
        <mxCell id="eFb6EC-VP60E3mpf6WAh-5" value="Information Processing and Augmentation" style="rounded=1;whiteSpace=wrap;html=1;fontSize=12;glass=0;strokeWidth=1;shadow=0;fillColor=#fff2cc;strokeColor=#d6b656;" vertex="1" parent="WIyWlLk6GJQsqaUBKTNV-1">
          <mxGeometry x="630" y="160" width="120" height="40" as="geometry" />
        </mxCell>
        <mxCell id="eFb6EC-VP60E3mpf6WAh-6" value="Observability and Feedback" style="rounded=1;whiteSpace=wrap;html=1;fontSize=12;glass=0;strokeWidth=1;shadow=0;" vertex="1" parent="WIyWlLk6GJQsqaUBKTNV-1">
          <mxGeometry x="360" y="40" width="120" height="40" as="geometry" />
        </mxCell>
        <mxCell id="eFb6EC-VP60E3mpf6WAh-21" style="edgeStyle=orthogonalEdgeStyle;rounded=0;orthogonalLoop=1;jettySize=auto;html=1;exitX=0.98;exitY=0.02;exitDx=0;exitDy=0;exitPerimeter=0;entryX=0.575;entryY=1;entryDx=0;entryDy=0;dashed=1;entryPerimeter=0;" edge="1" parent="WIyWlLk6GJQsqaUBKTNV-1" source="eFb6EC-VP60E3mpf6WAh-8" target="eFb6EC-VP60E3mpf6WAh-3">
          <mxGeometry relative="1" as="geometry" />
        </mxCell>
        <mxCell id="eFb6EC-VP60E3mpf6WAh-8" value="Caching" style="strokeWidth=2;html=1;shape=mxgraph.flowchart.multi-document;whiteSpace=wrap;fillColor=#ffe6cc;strokeColor=#d79b00;" vertex="1" parent="WIyWlLk6GJQsqaUBKTNV-1">
          <mxGeometry x="376" y="240" width="88" height="60" as="geometry" />
        </mxCell>
        <mxCell id="eFb6EC-VP60E3mpf6WAh-16" style="edgeStyle=orthogonalEdgeStyle;rounded=0;orthogonalLoop=1;jettySize=auto;html=1;exitX=0;exitY=0;exitDx=0;exitDy=0;entryX=1;entryY=0.5;entryDx=0;entryDy=0;dashed=1;" edge="1" parent="WIyWlLk6GJQsqaUBKTNV-1" source="eFb6EC-VP60E3mpf6WAh-9" target="eFb6EC-VP60E3mpf6WAh-6">
          <mxGeometry relative="1" as="geometry" />
        </mxCell>
        <mxCell id="eFb6EC-VP60E3mpf6WAh-9" value="Output and Response" style="rounded=1;whiteSpace=wrap;html=1;fontSize=12;glass=0;strokeWidth=1;shadow=0;fillColor=#e1d5e7;strokeColor=#9673a6;" vertex="1" parent="WIyWlLk6GJQsqaUBKTNV-1">
          <mxGeometry x="630" y="80" width="120" height="40" as="geometry" />
        </mxCell>
        <mxCell id="eFb6EC-VP60E3mpf6WAh-17" style="edgeStyle=orthogonalEdgeStyle;rounded=0;orthogonalLoop=1;jettySize=auto;html=1;exitX=1;exitY=0;exitDx=0;exitDy=0;entryX=0.325;entryY=0.975;entryDx=0;entryDy=0;entryPerimeter=0;dashed=1;" edge="1" parent="WIyWlLk6GJQsqaUBKTNV-1" source="eFb6EC-VP60E3mpf6WAh-0" target="eFb6EC-VP60E3mpf6WAh-6">
          <mxGeometry relative="1" as="geometry">
            <Array as="points">
              <mxPoint x="144" y="130" />
              <mxPoint x="399" y="130" />
            </Array>
          </mxGeometry>
        </mxCell>
        <mxCell id="eFb6EC-VP60E3mpf6WAh-19" style="edgeStyle=orthogonalEdgeStyle;rounded=0;orthogonalLoop=1;jettySize=auto;html=1;exitX=0.75;exitY=1;exitDx=0;exitDy=0;entryX=0;entryY=0.5;entryDx=0;entryDy=0;entryPerimeter=0;dashed=1;" edge="1" parent="WIyWlLk6GJQsqaUBKTNV-1" source="WIyWlLk6GJQsqaUBKTNV-7" target="eFb6EC-VP60E3mpf6WAh-8">
          <mxGeometry relative="1" as="geometry" />
        </mxCell>
        <mxCell id="eFb6EC-VP60E3mpf6WAh-20" style="edgeStyle=orthogonalEdgeStyle;rounded=0;orthogonalLoop=1;jettySize=auto;html=1;exitX=1;exitY=0.5;exitDx=0;exitDy=0;entryX=1;entryY=0.5;entryDx=0;entryDy=0;entryPerimeter=0;dashed=1;" edge="1" parent="WIyWlLk6GJQsqaUBKTNV-1" source="eFb6EC-VP60E3mpf6WAh-9" target="eFb6EC-VP60E3mpf6WAh-8">
          <mxGeometry relative="1" as="geometry" />
        </mxCell>
      </root>
    </mxGraphModel>
  </diagram>
</mxfile>
